<svg width="32" height="32" viewBox="0 0 32 32" fill="none" xmlns="http://www.w3.org/2000/svg">
<circle cx="16" cy="16" r="15" fill="#3D8361"/>
<path d="M11.1875 8.77344C11.7751 8.77344 12.3403 9.20295 12.7246 9.54199C13.9227 10.6045 15.2795 12.391 16.1611 13.7021C16.274 13.8602 16.3645 14.0407 16.5225 14.041C16.5455 14.041 16.5662 14.0369 16.585 14.0293C16.7889 12.8471 17.3792 11.5702 18.6846 10.5186C19.1214 10.2523 20.1526 9.54636 20.8105 8.84961L21.6895 8.78125C21.7078 8.77954 21.7265 8.77848 21.7451 8.77734L21.79 8.77344L21.7871 8.77539C21.8104 8.77451 21.8346 8.77344 21.8584 8.77344H24.1182C24.6155 8.77344 24.9775 9.09069 24.9775 9.56543V23.1064C24.9775 23.4681 24.7289 23.83 24.3447 23.8301H21.7002C21.2482 23.8301 20.9542 23.5359 20.9541 23.084V16.6611H20.168C20.4541 16.4374 21.0611 15.6951 21.2891 14.4268C21.5202 13.1408 21.1045 11.7084 20.8682 11.1533C20.3582 11.6935 19.5535 12.2418 19.2148 12.4482C17.1348 14.1239 17.3969 16.5374 17.7881 17.5352C18.36 17.071 19.5005 15.0315 19.999 14.0693C19.5677 15.8711 18.7414 17.4023 18.374 17.9424C18.378 17.94 18.3818 17.9369 18.3857 17.9346C18.0383 18.4747 17.7479 18.9874 17.4951 19.4668C17.3143 19.8285 17.0427 19.8281 16.4775 19.8281C15.9803 19.8281 15.6417 19.8055 15.4834 19.5117C14.3757 17.5224 13.5837 16.3467 12.4082 15.126C12.318 15.0358 12.2953 15.0137 12.1826 15.0137C12.047 15.0137 12.0244 15.1717 12.0244 15.8047V23.1064C12.0243 23.4454 11.7756 23.8298 11.3916 23.8301H8.74609C8.29413 23.83 8.00013 23.5359 8 23.084V9.61035C8 9.06785 8.36183 8.77349 8.9043 8.77344H11.1875Z" fill="#F4FCD9"/>
</svg>
